<?xml version="1.0" encoding="UTF-8"?>
<svg width="113px" height="28px" viewBox="0 0 113 28" version="1.1" xmlns="http://www.w3.org/2000/svg" xmlns:xlink="http://www.w3.org/1999/xlink">
    <!-- Generator: Sketch 43.2 (39069) - http://www.bohemiancoding.com/sketch -->
    <title>ABOUT</title>
    <desc>Created with Sketch.</desc>
    <defs></defs>
    <g id="Welcome" stroke="none" stroke-width="1" fill="none" fill-rule="evenodd">
        <g id="Desktop" transform="translate(-619.000000, -987.000000)" fill="#000000">
            <g id="Group-2" transform="translate(109.000000, -75.000000)">
                <path d="M520.2,1062 L510,1090 L520.2,1086.04 L530.44,1090 L520.2,1062 Z M532.84,1090 L532.84,1062 L537.24,1062 C539.6,1062 541.44,1063.84 541.44,1066.16 C541.44,1067.92 540.32,1069.44 538.76,1070.04 C543.68,1070.68 547.44,1074.92 547.44,1079.96 C547.44,1085.52 542.88,1090 537.24,1090 L532.84,1090 Z M577.04,1076 C577.04,1083.72 570.76,1090 563.04,1090 C555.32,1090 549.04,1083.72 549.04,1076 C549.04,1068.28 555.32,1062 563.04,1062 C570.76,1062 577.04,1068.28 577.04,1076 Z M580.24,1062.04 L596.64,1062.04 L596.64,1081.84 C596.64,1086.36 592.96,1090 588.44,1090 C583.92,1090 580.24,1086.36 580.24,1081.84 L580.24,1062.04 Z M622.6,1062 L597.44,1062 L606.36,1064.92 L606.36,1090 L613.6,1090 L613.6,1064.92 L622.6,1062 Z" id="ABOUT"></path>
            </g>
        </g>
    </g>
</svg>