<?xml version="1.0" encoding="UTF-8"?>
<svg width="155px" height="37px" viewBox="0 0 155 37" version="1.1" xmlns="http://www.w3.org/2000/svg" xmlns:xlink="http://www.w3.org/1999/xlink">
    <!-- Generator: Sketch 43.2 (39069) - http://www.bohemiancoding.com/sketch -->
    <title>CONTACT</title>
    <desc>Created with Sketch.</desc>
    <defs></defs>
    <g id="Welcome" stroke="none" stroke-width="1" fill="none" fill-rule="evenodd">
        <g id="Desktop" transform="translate(-355.000000, -809.000000)" fill="#000000">
            <path d="M373.84,809 L369.8,823 L373.84,837 L369.8,837 C362.08,837 355.8,830.72 355.8,823 C355.8,815.28 362.08,809 369.8,809 L373.84,809 Z M404.24,823 C404.24,830.72 397.96,837 390.24,837 C382.52,837 376.24,830.72 376.24,823 C376.24,815.28 382.52,809 390.24,809 C397.96,809 404.24,815.28 404.24,823 Z M423.84,836.96 L423.84,809 L420.56,820.16 L407.44,809 L407.44,845.28 L411.16,826.12 L423.84,836.96 Z M449.8,809 L440.8,811.92 L440.8,837 L433.56,837 L433.56,811.92 L424.64,809 L449.8,809 Z M455.2,809 L465.44,837 L455.2,833.04 L445,837 L455.2,809 Z M484.28,809 L480.24,823 L484.28,837 L480.24,837 C472.52,837 466.24,830.72 466.24,823 C466.24,815.28 472.52,809 480.24,809 L484.28,809 Z M509.44,809 L484.28,809 L493.2,811.92 L493.2,837 L500.44,837 L500.44,811.92 L509.44,809 Z" id="CONTACT"></path>
        </g>
    </g>
</svg>