<?xml version="1.0" encoding="UTF-8"?>
<svg width="638px" height="605px" viewBox="0 0 638 605" version="1.1" xmlns="http://www.w3.org/2000/svg" xmlns:xlink="http://www.w3.org/1999/xlink">
    <!-- Generator: Sketch 43.2 (39069) - http://www.bohemiancoding.com/sketch -->
    <title>Group 7</title>
    <desc>Created with Sketch.</desc>
    <defs></defs>
    <g id="Welcome" stroke="none" stroke-width="1" fill="none" fill-rule="evenodd">
        <g id="Desktop" transform="translate(-216.000000, -76.000000)">
            <g id="Group-7" transform="translate(216.000000, 76.000000)">
                <polygon id="Triangle-1" fill="#000000" transform="translate(398.862751, 60.730701) scale(-1, -1) translate(-398.862751, -60.730701) " points="398.862751 5.68434189e-14 478.796256 121.461403 318.929245 121.461403"></polygon>
                <polygon id="Triangle-1" fill="#000000" points="477.889466 242.840872 557.822971 364.302274 397.955961 364.302274"></polygon>
                <polygon id="Triangle-1" fill="#C3BAC6" transform="translate(238.927731, 302.711945) scale(-1, -1) translate(-238.927731, -302.711945) " points="238.927731 241.981244 318.861236 363.442646 158.994226 363.442646"></polygon>
                <polygon id="Triangle-1" fill-opacity="0.32274683" fill="#55CCC2" transform="translate(398.862751, 302.711945) scale(-1, -1) translate(-398.862751, -302.711945) " points="398.862751 241.981244 478.796256 363.442646 318.929245 363.442646"></polygon>
                <polygon id="Triangle-1" fill="#C3BAC6" transform="translate(238.927731, 182.192104) scale(-1, 1) translate(-238.927731, -182.192104) " points="238.927731 121.461403 318.861236 242.922805 158.994226 242.922805"></polygon>
                <polygon id="Triangle-1" fill="#55CBC2" transform="translate(159.901015, 182.192104) scale(-1, -1) translate(-159.901015, -182.192104) " points="159.901015 121.461403 239.83452 242.922805 79.9675099 242.922805"></polygon>
                <polygon id="Triangle-1" fill="#C3BAC6" points="318.895241 0 398.828746 121.461403 238.961735 121.461403"></polygon>
                <polygon id="Triangle-1" fill="#FF6663" transform="translate(318.895241, 182.192104) scale(-1, -1) translate(-318.895241, -182.192104) " points="318.895241 121.461403 398.828746 242.922805 238.961735 242.922805"></polygon>
                <polygon id="Triangle-1" fill="#000000" transform="translate(79.933505, 302.711945) scale(-1, -1) translate(-79.933505, -302.711945) " points="79.9335053 241.981244 159.867011 363.442646 3.69482223e-13 363.442646"></polygon>
                <polygon id="Triangle-1" fill-opacity="0.968466938" fill="#55CBC2" transform="translate(319.836035, 424.173348) scale(-1, -1) translate(-319.836035, -424.173348) " points="319.836035 363.442646 399.76954 484.904049 239.90253 484.904049"></polygon>
                <polygon id="Triangle-1" fill="#FF6663" transform="translate(398.862751, 544.269299) scale(-1, -1) translate(-398.862751, -544.269299) " points="398.862751 483.538597 478.796256 605 318.929245 605"></polygon>
                <polygon id="Triangle-1" fill="#000000" transform="translate(240.667633, 316.948753) scale(-1, 1) translate(-240.667633, -316.948753) " points="240.667633 181.00654 419.594228 452.890966 61.7410385 452.890966"></polygon>
                <polygon id="Triangle-1" fill="#23212E" transform="translate(477.889466, 424.173348) scale(-1, -1) translate(-477.889466, -424.173348) " points="477.889466 363.442646 557.822971 484.904049 397.955961 484.904049"></polygon>
                <polygon id="Triangle-1" fill="#C3BAC6" transform="translate(556.998486, 303.571573) scale(-1, -1) translate(-556.998486, -303.571573) " points="556.998486 242.840872 636.931991 364.302274 477.06498 364.302274"></polygon>
                <polygon id="Triangle-1" stroke="#C3BAC6" stroke-width="0.8" fill="#C3BAC6" transform="translate(556.998486, 182.192104) scale(-1, 1) translate(-556.998486, -182.192104) " points="556.998486 121.461403 636.931991 242.922805 477.06498 242.922805"></polygon>
                <polygon id="Triangle-1" fill="#C3BAC6" transform="translate(79.933505, 182.192104) scale(-1, 1) translate(-79.933505, -182.192104) " points="79.9335053 121.461403 159.867011 242.922805 4.54747351e-13 242.922805"></polygon>
                <text id="SW" font-family="Forma-Regular, Forma" font-size="96" font-weight="normal" letter-spacing="11.9282555" fill="#FFFFFF">
                    <tspan x="186.661634" y="386.28836">SW</tspan>
                </text>
            </g>
        </g>
    </g>
</svg>