<?xml version="1.0" encoding="UTF-8"?>
<svg width="90px" height="36px" viewBox="0 0 90 36" version="1.1" xmlns="http://www.w3.org/2000/svg" xmlns:xlink="http://www.w3.org/1999/xlink">
    <!-- Generator: Sketch 43.2 (39069) - http://www.bohemiancoding.com/sketch -->
    <title>WORK</title>
    <desc>Created with Sketch.</desc>
    <defs></defs>
    <g id="Welcome" stroke="none" stroke-width="1" fill="none" fill-rule="evenodd">
        <g id="Desktop" transform="translate(-674.000000, -863.000000)" fill="#000000">
            <g id="Group-2" transform="translate(109.000000, -75.000000)">
                <path d="M590.2,938 L582,966 L577.6,957.84 L573.2,966 L565,938 L590.2,938 Z M619,952 C619,959.72 612.72,966 605,966 C597.28,966 591,959.72 591,952 C591,944.28 597.28,938 605,938 C612.72,938 619,944.28 619,952 Z M637,948.4 C637,942.64 632.36,938 626.6,938 L622.2,938 L622.2,966 L626.08,958.76 L634.72,974 L630.92,957.84 C634.52,956.2 637,952.6 637,948.4 Z M655,938 L640.2,938 L640.2,966 L644.08,958.76 L652.72,974 L647.56,952.08 L655,938 Z" id="WORK"></path>
            </g>
        </g>
    </g>
</svg>